# xmcd CD database file
#
# Track frame offsets:
#	150
#	13942
#	27937
#	41510
#	55565
#	69110
#	81745
#	95385
#	109985
#	125790
#	138380
#	151475
#	173087
#	180330
#	193737
#	208137
#	222065
#	236192
#	248512
#	260417
#	274012
#	289017
#	290360
#	291545
#	293602
#
# Disc length: 3936 seconds
#
# Revision: 5
# Processed by: cddbd v1.5.2PL0 Copyright (c) Steve Scherf et al.
# Submitted via: CDex 1.51
#
DISCID=7d0f5e19
DTITLE=Charlie Parker - Charlie Parker
DYEAR=1998
DGENRE=Jazz
TTITLE0=Now's the Time
TTITLE1=I Remember You
TTITLE2=Confirmation
TTITLE3=Chi-Chi
TTITLE4=The Song Is You
TTITLE5=Laird Baird
TTITLE6=Kim
TTITLE7=Cosmic Rays
TTITLE8=Star Eyes
TTITLE9=Blues (fast)
TTITLE10=I'm in the Mood for Love
TTITLE11=The Bird
TTITLE12=Celebrity
TTITLE13=Ballade
TTITLE14=Cardboard
TTITLE15=Visa
TTITLE16=Chi-Chi (2)
TTITLE17=Chi-Chi (3)
TTITLE18=Chi-Chi (4)
TTITLE19=Kim (2)
TTITLE20=Cosmic Rays (2)
TTITLE21=Confirmation - false start
TTITLE22=Confirmation - false start (2)
TTITLE23=Chi-Chi - false start
TTITLE24=Chi-Chi - false start (2)
EXTD=YEAR: 1998
EXTT0=
EXTT1=
EXTT2=
EXTT3=
EXTT4=
EXTT5=
EXTT6=
EXTT7=
EXTT8=
EXTT9=
EXTT10=
EXTT11=
EXTT12=
EXTT13=
EXTT14=
EXTT15=
EXTT16=
EXTT17=
EXTT18=
EXTT19=
EXTT20=
EXTT21=
EXTT22=
EXTT23=
EXTT24=
PLAYORDER=
